<svg width="80" height="80" viewBox="0 0 80 80" fill="none" xmlns="http://www.w3.org/2000/svg">
<g clip-path="url(#clip0_2009_3826)">
<g filter="url(#filter0_f_2009_3826)">
<path d="M70.4231 66.0094C70.4231 70.731 56.8022 74.5587 40 74.5587C23.1978 74.5587 9.5769 70.731 9.5769 66.0094C9.5769 61.2877 23.1978 65.4601 40 65.4601C56.8022 65.4601 70.4231 61.2877 70.4231 66.0094Z" fill="#F0F3F9"/>
</g>
<ellipse cx="40" cy="66.4094" rx="26" ry="5.2" fill="url(#paint0_linear_2009_3826)"/>
<ellipse cx="40" cy="65.6094" rx="26" ry="5.2" fill="url(#paint1_linear_2009_3826)"/>
<mask id="mask0_2009_3826" style="mask-type:alpha" maskUnits="userSpaceOnUse" x="0" y="0" width="80" height="80">
<path d="M0 0H80V80H0V0Z" fill="url(#paint2_radial_2009_3826)"/>
</mask>
<g mask="url(#mask0_2009_3826)">
<path d="M-1.59998 7.5L40.8 4.3V46L-1.59998 49.2V7.5Z" fill="url(#paint3_linear_2009_3826)" fill-opacity="0.8"/>
<path d="M17 6.3H18.8V47.6H17V6.3Z" fill="white"/>
<path d="M-2.64526 29.2132L-2.76426 27.4172L38.4454 24.6868L38.5644 26.4829L-2.64526 29.2132Z" fill="white"/>
<path d="M14.509 53.5457H24.822L24.0854 60.9457C24.0854 60.9457 23.2797 61.9512 19.6425 61.9512C16.0053 61.9512 15.45 60.9457 15.45 60.9457L14.509 53.5457Z" fill="url(#paint4_linear_2009_3826)"/>
<path d="M25.1792 56.0262C25.1792 56.0262 23.9822 56.7012 19.7925 56.7012C15.6029 56.7012 14.4519 56.0262 14.4519 56.0262L14.2012 53.2262H25.3752L25.1792 56.0262Z" fill="url(#paint5_linear_2009_3826)"/>
<ellipse cx="19.7695" cy="53.2262" rx="5.587" ry="0.3" fill="url(#paint6_linear_2009_3826)"/>
<ellipse cx="19.7695" cy="53.2099" rx="4.30474" ry="0.218605" fill="url(#paint7_linear_2009_3826)"/>
<path d="M11.0379 36.4877C10.3652 36.6972 10.3454 37.4844 10.523 37.7507C9.47228 37.7792 8.34011 39.6544 9.06266 41.428C9.61427 42.782 11.6371 43.7595 12.4645 43.2568C12.4645 44.3098 14.2314 45.0544 15.4647 44.6888C16.698 44.3231 17.4887 42.5807 17.7299 41.7551C18.2789 40.9256 19.1795 38.7906 18.3898 36.8863C17.6001 34.982 16.0132 35.7961 15.3185 36.4413C15.1359 35.8549 14.4657 35.2825 13.6742 35.4141C12.5238 35.6054 12.2055 36.6525 12.2651 37.2083C12.1216 36.7475 11.7106 36.2782 11.0379 36.4877Z" fill="url(#paint8_linear_2009_3826)"/>
<path d="M16.65 30.325C15.9735 30.3438 15.7667 31.0083 15.8 31.425C15.2 31.2 13.875 31.425 13.375 32.45C12.875 33.475 13.4001 34.3167 13.75 34.8C13.4167 34.8167 12.8 35.275 12.8 35.875C12.8 36.5838 13.25 36.8833 13.75 37.05C13.4167 37.0333 12.9106 37.709 13 38.425C13.175 39.825 14.2417 40.45 14.925 40.3C15.625 40.8167 16.89 40.46 18.85 40.3C20.81 40.14 22.1 37.1667 22.5 35.7C22.7167 34.9667 23.37 33.44 22.85 32.6C22.33 31.76 20.7 31.925 20.4 32.45C20.4 32.1 20.3 31.375 19.4 31.025C18.5 30.675 17.578 30.8936 17.55 31.425C17.5667 31.1083 17.3266 30.3062 16.65 30.325Z" fill="url(#paint9_linear_2009_3826)"/>
<path d="M13.1 38.85C11.9114 40.1085 12.4375 42.5875 14.1625 42.8125C13.825 43.2625 13.7309 44.8084 14.9625 45.4375C16.7 46.325 18.5 44.75 18.7 43.6C18.6375 45.2875 20.294 47.091 22.35 46.55C24.4875 45.9875 24.6 43.725 23.7 42.75C24.1375 42.825 25.1715 43.126 26.15 41.8C27.4875 39.9875 26.05 37.35 24.6 37.95C25.65 36.6 26.0625 33.35 23.4125 32.85C20.7625 32.35 20.775 35.325 21.2 35.75C20.7875 35.3375 19.9875 35.75 20.1 36.2C19.9125 35.85 19.2043 35.0422 18.1 35.2C16.1197 35.4829 15.9 37.3166 16.05 38.35C15.5334 37.9666 14.1625 37.725 13.1 38.85Z" fill="url(#paint10_linear_2009_3826)"/>
<path d="M19.0836 47.4902C18.7507 45.7915 17.6233 45.4299 17.4625 45.2125C17.85 45 17.95 44.6375 18.225 44.5375C18.5 44.4375 19.5263 46.0424 19.5263 46.0424C19.9042 45.5943 20.6453 44.2695 21.3709 43.312C21.8569 42.6707 22.4164 42.225 22.5559 42.2032C22.9037 42.1487 22.911 42.2985 22.911 42.2985C21.8579 42.7753 19.9243 46.2479 19.9825 47.4465L20.2667 53.2896L19.2179 53.3406C19.209 53.1575 19.4165 49.1889 19.0836 47.4902Z" fill="url(#paint11_linear_2009_3826)"/>
</g>
<path d="M25.3059 62.1804L26.5316 57.5106L28.6589 58.3116L26.5586 62.3234C26.3172 62.9498 25.3079 62.5304 25.3059 62.1804Z" fill="url(#paint12_linear_2009_3826)"/>
<path d="M67.4407 66.1874L66.5887 59.8522L63.4319 59.8699L66.1897 66.3444C66.4381 66.968 67.4427 66.5374 67.4407 66.1874Z" fill="url(#paint13_linear_2009_3826)"/>
<path d="M70.8752 15.6835L63.7509 9.12339L63.211 61.5272L69.8667 58.8899L70.8752 15.6835Z" fill="url(#paint14_linear_2009_3826)"/>
<path d="M21.8976 17.3582L63.751 9.12339L63.211 61.5272L22.122 57.3576L21.8976 17.3582Z" fill="url(#paint15_linear_2009_3826)"/>
<path d="M29.397 21.1162L22.97 18.0772L63.8557 9.22281L63.0634 16.6274L29.397 21.1162Z" fill="url(#paint16_linear_2009_3826)"/>
<path d="M29.4231 21.1161L23.1528 18.1512L23.3749 57.7506L28.3765 57.5225L29.4231 21.1161Z" fill="url(#paint17_linear_2009_3826)"/>
<path d="M23.2134 56.8265L28.3146 55.7729L62.5633 57.5308L61.9491 59.5343L23.2134 56.8265Z" fill="url(#paint18_linear_2009_3826)"/>
<path d="M63.2114 61.5276L22.1242 57.758L21.8976 17.3582L63.7506 9.12339L63.2114 61.5276ZM23.3699 56.8106L61.5315 59.3964L61.4462 44.1974L23.2981 44.0109L23.3699 56.8106ZM23.2249 30.9506L23.2922 42.9504L61.4336 41.9367L61.3551 27.9369L23.2249 30.9506ZM23.2338 18.6134L23.2989 30.2139L61.4246 26.3994L61.346 12.3996L23.2338 18.6134Z" fill="url(#paint19_linear_2009_3826)"/>
</g>
<defs>
<filter id="filter0_f_2009_3826" x="3.1769" y="57.3583" width="73.6462" height="23.6004" filterUnits="userSpaceOnUse" color-interpolation-filters="sRGB">
<feFlood flood-opacity="0" result="BackgroundImageFix"/>
<feBlend mode="normal" in="SourceGraphic" in2="BackgroundImageFix" result="shape"/>
<feGaussianBlur stdDeviation="3.2" result="effect1_foregroundBlur_2009_3826"/>
</filter>
<linearGradient id="paint0_linear_2009_3826" x1="40" y1="71.6094" x2="40" y2="61.2094" gradientUnits="userSpaceOnUse">
<stop stop-color="#CACFDB"/>
<stop offset="1" stop-color="#EFE5EB" stop-opacity="0"/>
</linearGradient>
<linearGradient id="paint1_linear_2009_3826" x1="40" y1="70.8094" x2="40" y2="60.4094" gradientUnits="userSpaceOnUse">
<stop stop-color="#FAEFDF"/>
<stop offset="1" stop-color="#DEE5FF" stop-opacity="0"/>
</linearGradient>
<radialGradient id="paint2_radial_2009_3826" cx="0" cy="0" r="1" gradientUnits="userSpaceOnUse" gradientTransform="translate(40 40) rotate(180) scale(40 61.2)">
<stop offset="0.74" stop-color="#FF0032"/>
<stop offset="1" stop-color="#FF0032" stop-opacity="0"/>
</radialGradient>
<linearGradient id="paint3_linear_2009_3826" x1="40.8" y1="6.30001" x2="1.19564" y2="50.8" gradientUnits="userSpaceOnUse">
<stop stop-color="#ECF0F8"/>
<stop offset="1" stop-color="#EFECF9" stop-opacity="0"/>
</linearGradient>
<linearGradient id="paint4_linear_2009_3826" x1="15.6259" y1="60.5012" x2="24.9774" y2="59.9691" gradientUnits="userSpaceOnUse">
<stop stop-color="#D9DCE8"/>
<stop offset="1" stop-color="#ECF0F8" stop-opacity="0"/>
</linearGradient>
<linearGradient id="paint5_linear_2009_3826" x1="14.6791" y1="54.3976" x2="23.9959" y2="57.4529" gradientUnits="userSpaceOnUse">
<stop stop-color="#D2D6E3"/>
<stop offset="1" stop-color="#F9F9FD"/>
</linearGradient>
<linearGradient id="paint6_linear_2009_3826" x1="14.1825" y1="53.462" x2="14.5094" y2="55.3876" gradientUnits="userSpaceOnUse">
<stop stop-color="#ECF0F8"/>
<stop offset="1" stop-color="#FCFBFF"/>
</linearGradient>
<linearGradient id="paint7_linear_2009_3826" x1="15.8296" y1="53.1894" x2="16.4539" y2="54.6321" gradientUnits="userSpaceOnUse">
<stop stop-color="#D2D6E3"/>
<stop offset="1" stop-color="#BFCAE9"/>
</linearGradient>
<linearGradient id="paint8_linear_2009_3826" x1="9.16012" y1="36.4967" x2="11.3381" y2="41.7856" gradientUnits="userSpaceOnUse">
<stop stop-color="#F2F3F9"/>
<stop offset="1" stop-color="#AED2AD"/>
</linearGradient>
<linearGradient id="paint9_linear_2009_3826" x1="16.325" y1="30.3247" x2="18.375" y2="41.7" gradientUnits="userSpaceOnUse">
<stop stop-color="#F2F3F9"/>
<stop offset="0.45" stop-color="#AED2AD"/>
<stop offset="0.985" stop-color="#0C8597"/>
</linearGradient>
<linearGradient id="paint10_linear_2009_3826" x1="19.5701" y1="32.7935" x2="23.9745" y2="46.4839" gradientUnits="userSpaceOnUse">
<stop stop-color="#FFE4BB"/>
<stop offset="0.337799" stop-color="#8FBF8E"/>
<stop offset="1" stop-color="#26899E"/>
</linearGradient>
<linearGradient id="paint11_linear_2009_3826" x1="20.7495" y1="42.1158" x2="21.2905" y2="53.2398" gradientUnits="userSpaceOnUse">
<stop stop-color="#D1BDA9"/>
<stop offset="1" stop-color="#C1CCE9"/>
</linearGradient>
<linearGradient id="paint12_linear_2009_3826" x1="24.9333" y1="64.7697" x2="28.0557" y2="57.2973" gradientUnits="userSpaceOnUse">
<stop stop-color="#ECD3AE"/>
<stop offset="1" stop-color="#91A2E1" stop-opacity="0"/>
</linearGradient>
<linearGradient id="paint13_linear_2009_3826" x1="67.3095" y1="67.0632" x2="64.1035" y2="59.6262" gradientUnits="userSpaceOnUse">
<stop stop-color="#ECD3AE"/>
<stop offset="1" stop-color="#91A2E1" stop-opacity="0"/>
</linearGradient>
<linearGradient id="paint14_linear_2009_3826" x1="63.8905" y1="10.0224" x2="29.1709" y2="30.1222" gradientUnits="userSpaceOnUse">
<stop stop-color="#DCE3F5"/>
<stop offset="1" stop-color="#EBD3AE"/>
</linearGradient>
<linearGradient id="paint15_linear_2009_3826" x1="24.6177" y1="56.3436" x2="59.3955" y2="15.3077" gradientUnits="userSpaceOnUse">
<stop stop-color="#DCE3F5"/>
<stop offset="1" stop-color="#EBD3AE"/>
</linearGradient>
<linearGradient id="paint16_linear_2009_3826" x1="24.0336" y1="20.9796" x2="27.4026" y2="4.29453" gradientUnits="userSpaceOnUse">
<stop stop-color="#C0CBE9"/>
<stop offset="1" stop-color="#EBD3AE"/>
</linearGradient>
<linearGradient id="paint17_linear_2009_3826" x1="23.1584" y1="19.1512" x2="28.263" y2="55.479" gradientUnits="userSpaceOnUse">
<stop stop-color="#DBDCE2"/>
<stop offset="1" stop-color="#CCD2E5"/>
</linearGradient>
<linearGradient id="paint18_linear_2009_3826" x1="60.7024" y1="60.2413" x2="28.7626" y2="54.2461" gradientUnits="userSpaceOnUse">
<stop stop-color="#C0CBE9"/>
<stop offset="1" stop-color="#EBD3AE"/>
</linearGradient>
<linearGradient id="paint19_linear_2009_3826" x1="22.5993" y1="49.5551" x2="62.705" y2="20.5755" gradientUnits="userSpaceOnUse">
<stop stop-color="#EEEFF1"/>
<stop offset="1" stop-color="#FBF0E1"/>
</linearGradient>
<clipPath id="clip0_2009_3826">
<rect width="80" height="80" fill="white"/>
</clipPath>
</defs>
</svg>
