<svg width="22" height="22" viewBox="0 0 22 22" fill="none" xmlns="http://www.w3.org/2000/svg">
<path d="M19.9046 0C21.0617 0 22 0.961397 22 2.14707V10.7343C21.9999 16.6626 17.3095 21.4687 11.5239 21.4687H10.4761C4.69065 21.4685 0.000122758 16.6625 0 10.7343C0 4.8061 4.69057 0.00017884 10.4761 0H19.9046ZM7.77989 8.58728C7.18706 8.58728 6.70636 9.06798 6.70636 9.66081V11.8079C6.70654 12.4006 7.18717 12.8814 7.77989 12.8814C8.37257 12.8814 8.85325 12.4005 8.85343 11.8079V9.66081C8.85343 9.06801 8.37268 8.58734 7.77989 8.58728ZM13.1466 8.58728C12.5539 8.58751 12.074 9.06812 12.074 9.66081V11.8079C12.0742 12.4004 12.554 12.8812 13.1466 12.8814C13.7393 12.8814 14.2199 12.4006 14.2201 11.8079V9.66081C14.2201 9.06798 13.7394 8.58728 13.1466 8.58728Z" fill="#C5C5C5"/>
</svg>
