<svg width="24" height="24" viewBox="0 0 24 24" fill="none" xmlns="http://www.w3.org/2000/svg">
<path d="M20.4229 1.11133C21.5607 1.11133 22.4834 2.05672 22.4834 3.22266V11.667C22.4833 17.4966 17.871 22.2227 12.1816 22.2227H11.1514C5.46218 22.2225 0.84973 17.4965 0.849609 11.667C0.849609 5.83743 5.4621 1.1115 11.1514 1.11133H20.4229ZM8.5 9.55566C7.91703 9.55566 7.44434 10.0284 7.44434 10.6113V12.7227C7.44451 13.3055 7.91714 13.7783 8.5 13.7783C9.08281 13.7783 9.55549 13.3054 9.55566 12.7227V10.6113C9.55566 10.0284 9.08292 9.55572 8.5 9.55566ZM13.7773 9.55566C13.1946 9.55589 12.7227 10.0285 12.7227 10.6113V12.7227C12.7228 13.3053 13.1947 13.7781 13.7773 13.7783C14.3602 13.7783 14.8328 13.3055 14.833 12.7227V10.6113C14.833 10.0284 14.3603 9.55566 13.7773 9.55566Z" fill="#A1A3B0"/>
</svg>
