<svg width="24" height="24" viewBox="0 0 24 24" fill="none" xmlns="http://www.w3.org/2000/svg">
<path fill-rule="evenodd" clip-rule="evenodd" d="M12 8.50047C13.933 8.50047 15.5 10.0675 15.5 12.0005C15.4997 13.9333 13.9328 15.5005 12 15.5005C10.0672 15.5005 8.50025 13.9333 8.5 12.0005C8.5 10.0675 10.067 8.50047 12 8.50047ZM12 10.5005C11.1716 10.5005 10.5 11.172 10.5 12.0005C10.5003 12.8287 11.1717 13.5005 12 13.5005C12.8283 13.5005 13.4997 12.8287 13.5 12.0005C13.5 11.172 12.8284 10.5005 12 10.5005Z" fill="#2E2E30"/>
<path fill-rule="evenodd" clip-rule="evenodd" d="M9.97168 2.5327C11.2235 1.79635 12.7765 1.79635 14.0283 2.5327L19.5283 5.76805C20.75 6.48675 21.5 7.79889 21.5 9.21629V14.7837C21.5 16.2011 20.75 17.5132 19.5283 18.2319L14.0283 21.4673C12.7765 22.2036 11.2235 22.2036 9.97168 21.4673L4.47168 18.2319C3.25003 17.5132 2.5 16.2011 2.5 14.7837V9.21629C2.5 7.79889 3.25002 6.48675 4.47168 5.76805L9.97168 2.5327ZM13.0137 4.25633C12.388 3.88849 11.612 3.88849 10.9863 4.25633L5.48633 7.49168C4.87545 7.85102 4.5 8.50756 4.5 9.21629V14.7837C4.5 15.4924 4.87545 16.1489 5.48633 16.5083L10.9863 19.7436C11.612 20.1115 12.388 20.1115 13.0137 19.7436L18.5137 16.5083C19.1245 16.1489 19.5 15.4924 19.5 14.7837V9.21629C19.5 8.50756 19.1245 7.85102 18.5137 7.49168L13.0137 4.25633Z" fill="#2E2E30"/>
</svg>
