<svg width="24" height="24" viewBox="0 0 24 24" fill="none" xmlns="http://www.w3.org/2000/svg">
<path d="M5.53361 1.4373H5.46536C4.73574 1.4373 4.13936 1.4373 3.65511 1.4763C3.15136 1.51855 2.69961 1.6063 2.27549 1.8208C1.61411 2.1588 1.07461 2.6983 0.736611 3.35968C0.522111 3.78218 0.434361 4.23718 0.393736 4.73768C0.353111 5.22355 0.353111 5.81993 0.353111 6.54955V17.4501C0.353111 18.1813 0.353111 18.7761 0.393736 19.2619C0.434361 19.7641 0.522111 20.2174 0.736611 20.6399C1.07461 21.3029 1.61411 21.8424 2.27549 22.1788C2.69799 22.3949 3.15299 22.4811 3.65511 22.5233C4.13936 22.5623 4.73574 22.5623 5.46536 22.5623H5.53361C6.26324 22.5623 6.85961 22.5623 7.34386 22.5233C7.84761 22.4811 8.29936 22.3933 8.72349 22.1788C9.38486 21.8408 9.92436 21.3013 10.2624 20.6399C10.4769 20.2174 10.5646 19.7624 10.6052 19.2619C10.6459 18.7761 10.6459 18.1797 10.6459 17.4501V8.27205L13.3726 18.4901C13.5562 19.1839 13.7074 19.7511 13.8682 20.2012C14.034 20.6676 14.2322 21.0787 14.5459 21.4281C15.035 21.9724 15.6834 22.3494 16.4016 22.5022C16.8599 22.5997 17.3132 22.5672 17.7991 22.4794C18.2704 22.3933 18.8342 22.2406 19.5232 22.0553L19.5899 22.0374C20.1641 21.8927 20.7328 21.7263 21.2945 21.5386C21.7592 21.3712 22.1687 21.1729 22.5165 20.8561C23.0598 20.3645 23.4341 19.7139 23.5857 18.9971C23.6832 18.5388 23.6507 18.0838 23.563 17.5963C23.4769 17.1267 23.3257 16.5612 23.1421 15.8738L20.3764 5.50955C20.2326 4.93318 20.0673 4.3624 19.8807 3.79843C19.715 3.33205 19.5167 2.92093 19.2031 2.57155C18.7137 2.02619 18.064 1.65012 17.3474 1.49743C16.8891 1.39993 16.4357 1.43243 15.9499 1.52018C15.4786 1.6063 14.9147 1.75905 14.2241 1.9443L14.1591 1.96055C13.4701 2.14743 12.9046 2.30018 12.4545 2.46105C11.9897 2.62843 11.5802 2.8283 11.2325 3.14355C10.94 3.4068 10.6962 3.7188 10.5094 4.06168C10.4571 3.81815 10.3741 3.58226 10.2624 3.35968C9.92476 2.6971 9.38606 2.15841 8.72349 1.8208C8.30099 1.60468 7.84599 1.51855 7.34386 1.4763C6.74115 1.44061 6.1373 1.4276 5.53361 1.4373ZM5.49949 16.3337H5.50924C5.655 16.328 5.8004 16.3519 5.93672 16.4037C6.07305 16.4556 6.19751 16.5345 6.30263 16.6356C6.40775 16.7368 6.49138 16.8581 6.5485 16.9923C6.60563 17.1265 6.63507 17.2709 6.63507 17.4167C6.63507 17.5626 6.60563 17.707 6.5485 17.8412C6.49138 17.9754 6.40775 18.0967 6.30263 18.1979C6.19751 18.299 6.07305 18.3778 5.93672 18.4297C5.8004 18.4816 5.655 18.5055 5.50924 18.4998H5.49949C5.2195 18.489 4.95459 18.3701 4.76034 18.1682C4.56608 17.9662 4.45757 17.6969 4.45757 17.4167C4.45757 17.1365 4.56608 16.8672 4.76034 16.6653C4.95459 16.4634 5.2195 16.3445 5.49949 16.3337ZM9.02086 6.30743V6.85343C9.02086 7.15243 8.77711 7.39618 8.47811 7.39618H2.52086C2.44953 7.39639 2.37885 7.3825 2.31291 7.3553C2.24696 7.3281 2.18704 7.28813 2.1366 7.23769C2.08616 7.18725 2.04619 7.12733 2.01899 7.06138C1.99179 6.99544 1.9779 6.92476 1.97811 6.85343V6.30743C1.97811 6.23673 1.99209 6.16673 2.01924 6.10146C2.04639 6.03619 2.08618 5.97693 2.13632 5.92709C2.18646 5.87725 2.24596 5.83782 2.3114 5.81106C2.37684 5.7843 2.44692 5.77075 2.51761 5.77118H8.48136C8.55206 5.77075 8.62214 5.7843 8.68757 5.81106C8.75301 5.83782 8.81251 5.87725 8.86265 5.92709C8.91279 5.97693 8.95258 6.03619 8.97973 6.10146C9.00688 6.16673 9.02086 6.23673 9.02086 6.30743ZM17.9811 16.0412L17.9909 16.0379C18.1298 15.9962 18.2757 15.9828 18.4199 15.9986C18.5641 16.0143 18.7037 16.0588 18.8304 16.1294C18.9571 16.2001 19.0683 16.2955 19.1574 16.4099C19.2466 16.5243 19.3119 16.6555 19.3494 16.7956C19.3869 16.9357 19.396 17.082 19.3759 17.2256C19.3559 17.3693 19.3073 17.5075 19.2329 17.632C19.1584 17.7566 19.0598 17.8649 18.9428 17.9506C18.8257 18.0363 18.6927 18.0976 18.5515 18.1309L18.5434 18.1326C18.4044 18.1743 18.2585 18.1876 18.1143 18.1719C17.9701 18.1562 17.8305 18.1117 17.7038 18.041C17.5772 17.9704 17.4659 17.875 17.3768 17.7606C17.2876 17.6461 17.2223 17.515 17.1848 17.3749C17.1473 17.2347 17.1383 17.0885 17.1583 16.9448C17.1783 16.8012 17.227 16.663 17.3014 16.5385C17.3758 16.4139 17.4744 16.3056 17.5915 16.2199C17.7085 16.1342 17.8416 16.0729 17.9827 16.0396L17.9811 16.0412ZM18.8164 5.9613C18.8467 6.07524 18.8317 6.19653 18.7744 6.29959C18.7171 6.40266 18.622 6.47946 18.5092 6.5138L12.8997 8.23955C12.8301 8.26102 12.7568 8.2682 12.6843 8.26065C12.6118 8.25311 12.5416 8.23099 12.4778 8.19563C12.4141 8.16026 12.3582 8.11239 12.3134 8.05488C12.2686 7.99736 12.2359 7.93139 12.2172 7.86093L12.1864 7.74718L12.0759 7.32955C12.0409 7.1956 12.0591 7.05332 12.1266 6.93247C12.1942 6.81162 12.3058 6.72158 12.4382 6.68118L17.9779 4.97655C18.0459 4.95522 18.1176 4.94781 18.1885 4.95476C18.2595 4.96171 18.3284 4.98287 18.391 5.01699C18.4536 5.0511 18.5087 5.09748 18.5531 5.15335C18.5974 5.20922 18.63 5.27344 18.649 5.34218L18.8164 5.95968V5.9613Z" fill="#A1A3B0"/>
</svg>
