<svg width="24" height="24" viewBox="0 0 24 24" fill="none" xmlns="http://www.w3.org/2000/svg">
<path d="M12.001 18.958C12.5484 18.9582 12.9912 19.4024 12.9912 19.9492V21.0088C12.9911 21.5555 12.5484 21.9998 12.001 22C11.4534 22 11.0099 21.5557 11.0098 21.0088V19.9492C11.0098 19.4022 11.4533 18.958 12.001 18.958Z" fill="#2E2E30"/>
<path d="M16.9209 16.9199C17.3084 16.534 17.9356 16.5333 18.3223 16.9199L19.0713 17.6699C19.458 18.057 19.4581 18.6843 19.0713 19.0713C18.6848 19.4576 18.0564 19.4576 17.6699 19.0713L16.9199 18.3213C16.5334 17.9347 16.5347 17.3069 16.9209 16.9199Z" fill="#2E2E30"/>
<path d="M5.75488 16.8525C6.14373 16.5355 6.71726 16.558 7.08008 16.9199L7.14844 16.9961C7.44441 17.3594 7.44474 17.8832 7.14844 18.2461L7.08008 18.3213L6.33105 19.0713C5.96825 19.4334 5.39414 19.4564 5.00488 19.1396L4.92969 19.0713C4.54329 18.6842 4.54335 18.057 4.92969 17.6699L5.67871 16.9199L5.75488 16.8525Z" fill="#2E2E30"/>
<path fill-rule="evenodd" clip-rule="evenodd" d="M12.001 5.70996C15.4752 5.7102 18.291 8.52573 18.291 12C18.291 15.4743 15.4752 18.2898 12.001 18.29C8.5271 18.29 5.70996 15.4744 5.70996 12C5.70996 8.52557 8.5271 5.70996 12.001 5.70996ZM12.001 7.69141C9.62175 7.69141 7.69238 9.62028 7.69238 12C7.69238 14.3792 9.62177 16.3086 12.001 16.3086C14.3805 16.3084 16.3086 14.3791 16.3086 12C16.3086 9.62041 14.3805 7.69165 12.001 7.69141Z" fill="#2E2E30"/>
<path d="M4.05176 11.0088C4.59922 11.0091 5.04199 11.4532 5.04199 12C5.04199 12.5468 4.59922 12.9909 4.05176 12.9912H2.99121C2.44436 12.9909 2.00098 12.5469 2.00098 12C2.00098 11.4531 2.44436 11.0091 2.99121 11.0088H4.05176Z" fill="#2E2E30"/>
<path d="M21.0098 11.0088C21.5573 11.009 22.001 11.4531 22.001 12C22.001 12.5469 21.5573 12.991 21.0098 12.9912H19.9502C19.4025 12.9912 18.959 12.547 18.959 12C18.959 11.453 19.4025 11.0088 19.9502 11.0088H21.0098Z" fill="#2E2E30"/>
<path d="M17.6699 4.92871C18.0564 4.54188 18.6848 4.54188 19.0713 4.92871C19.4581 5.31574 19.458 5.94301 19.0713 6.33008L18.3223 7.08008C17.9352 7.46708 17.307 7.46696 16.9199 7.08008C16.5337 6.69307 16.5338 6.06578 16.9199 5.67871L17.6699 4.92871Z" fill="#2E2E30"/>
<path d="M5.00488 4.86035C5.39414 4.54316 5.96824 4.5661 6.33105 4.92871L7.08008 5.67871C7.46708 6.06583 7.46715 6.693 7.08008 7.08008C6.71726 7.44263 6.14377 7.46496 5.75488 7.14746L5.67871 7.08008L4.92969 6.33008C4.54335 5.94299 4.54329 5.31577 4.92969 4.92871L5.00488 4.86035Z" fill="#2E2E30"/>
<path d="M12.001 2C12.5484 2.00024 12.9911 2.44449 12.9912 2.99121V4.05078C12.9912 4.5976 12.5484 5.04175 12.001 5.04199C11.4533 5.04199 11.0098 4.59775 11.0098 4.05078V2.99121C11.0099 2.44434 11.4534 2 12.001 2Z" fill="#2E2E30"/>
</svg>
