<svg width="24" height="24" viewBox="0 0 24 24" fill="none" xmlns="http://www.w3.org/2000/svg">
<path d="M21.3142 6.13599L14.1495 1.80206C13.626 1.4862 13.028 1.31515 12.4167 1.30646C11.8054 1.29776 11.2028 1.45171 10.6706 1.75255L2.93434 6.13599C1.91723 6.71205 1.28267 7.78315 1.28267 8.92177V19.6778C1.28267 21.46 2.78582 22.9092 4.63101 22.9092H19.5365C21.3862 22.9092 22.8848 21.46 22.8848 19.6778V8.87676C22.8848 7.75615 22.2998 6.73455 21.3142 6.14049V6.13599ZM16.4222 17.8867H7.74532C7.29977 17.8867 6.93974 17.5491 6.93974 17.1351C6.93974 16.721 7.29977 16.3835 7.74532 16.3835H16.4222C16.8677 16.3835 17.2278 16.721 17.2278 17.1351C17.2278 17.5491 16.8677 17.8867 16.4222 17.8867Z" fill="#A1A3B0"/>
</svg>
