<svg width="24" height="24" viewBox="0 0 24 24" fill="none" xmlns="http://www.w3.org/2000/svg">
<path fill-rule="evenodd" clip-rule="evenodd" d="M13.6069 1.99988C13.6649 1.9989 13.7239 2.00405 13.7807 2.0155C16.1869 2.46657 18.3472 3.77905 19.8569 5.70691C21.3665 7.63483 22.1222 10.047 21.9838 12.4921C21.8454 14.9372 20.8216 17.2489 19.1039 18.994L18.7758 19.3124C17.0994 20.8675 14.9392 21.8092 12.6498 21.9745C12.4077 21.9996 12.1652 21.9999 11.9262 21.9999L11.4858 21.9901C9.28861 21.8943 7.17782 21.0809 5.4809 19.6688C3.67118 18.1626 2.44618 16.0695 2.018 13.7538C1.99171 13.6176 1.99567 13.4771 2.02972 13.3426C2.06383 13.2082 2.12727 13.0827 2.21527 12.9755C2.30322 12.8684 2.41344 12.7812 2.53851 12.7216C2.66369 12.662 2.80127 12.6305 2.93988 12.6298C3.0548 12.6312 3.16914 12.653 3.27679 12.6932C4.00433 12.9748 4.77245 13.1361 5.55023 13.1727L5.88422 13.1815H5.90277L6.2641 13.1708C7.94636 13.0799 9.54683 12.4117 10.7953 11.2801L11.058 11.0311C12.4258 9.66279 13.1984 7.80891 13.2075 5.8739C13.2095 4.98602 13.0482 4.10486 12.7319 3.27527C12.6789 3.1332 12.6607 2.98048 12.6791 2.82995C12.6976 2.67937 12.7525 2.53512 12.8383 2.41003C12.9241 2.28519 13.0387 2.18249 13.1723 2.1112C13.306 2.04 13.4554 2.00145 13.6069 1.99988ZM15.1245 4.52136C15.1898 4.96995 15.2241 5.42362 15.2231 5.87878V5.88366C15.2114 8.34961 14.227 10.7119 12.4838 12.4559C10.7404 14.1999 8.37831 15.1854 5.91254 15.1971H5.88226C5.42373 15.1967 4.96667 15.1595 4.51508 15.0917C5.01365 16.2578 5.78347 17.2982 6.77093 18.12C8.21865 19.3246 10.0424 19.9844 11.9252 19.9843C12.1808 19.9842 12.3205 19.9822 12.4418 19.9696L12.4731 19.9667L12.5053 19.9637C14.4581 19.8227 16.2934 18.9756 17.6674 17.58C19.0415 16.1839 19.8613 14.3341 19.9721 12.3778C20.0827 10.4218 19.4774 8.49225 18.27 6.95007C17.4347 5.88347 16.3502 5.05177 15.1245 4.52136Z" fill="#2E2E30"/>
<path d="M4.68402 4.63659C4.94848 4.36259 5.66041 4.6361 6.4223 5.23132C7.18094 4.63622 7.89218 4.37216 8.15668 4.63659C8.42115 4.90116 8.15994 5.62212 7.56488 6.37488C8.15679 7.13393 8.42115 7.84251 8.15668 8.11023C7.89215 8.37778 7.18095 8.11356 6.4223 7.51843C5.66038 8.11054 4.94849 8.37479 4.68402 8.11023C4.41987 7.84553 4.68096 7.1337 5.27582 6.37488C4.68418 5.61296 4.41992 4.91073 4.68402 4.63659Z" fill="#2E2E30"/>
</svg>
