<svg width="22" height="22" viewBox="0 0 22 22" fill="none" xmlns="http://www.w3.org/2000/svg">
<path d="M20.3996 4.91863L13.1032 0.505062C12.5702 0.183398 11.9612 0.00921433 11.3386 0.000355634C10.7161 -0.00850306 10.1024 0.148281 9.56044 0.454648L1.68201 4.91863C0.646223 5.50527 0 6.59606 0 7.75559V18.7093C0 20.5242 1.53077 22 3.40986 22H18.5892C20.4729 22 21.9991 20.5242 21.9991 18.7093V7.70976C21.9991 6.56856 21.4033 5.52819 20.3996 4.92321V4.91863ZM15.4177 16.8852H6.58139C6.12766 16.8852 5.76101 16.5415 5.76101 16.1198C5.76101 15.6982 6.12766 15.3544 6.58139 15.3544H15.4177C15.8714 15.3544 16.2381 15.6982 16.2381 16.1198C16.2381 16.5415 15.8714 16.8852 15.4177 16.8852Z" fill="url(#paint0_linear_0_9)"/>
<defs>
<linearGradient id="paint0_linear_0_9" x1="21.9991" y1="11" x2="-0.0116095" y2="11.0111" gradientUnits="userSpaceOnUse">
<stop stop-color="#00C4E9"/>
<stop offset="1" stop-color="#00EFB9"/>
</linearGradient>
</defs>
</svg>
