<svg width="24" height="24" viewBox="0 0 24 24" fill="none" xmlns="http://www.w3.org/2000/svg">
<path fill-rule="evenodd" clip-rule="evenodd" d="M16.4393 16.4393C17.0251 15.8535 17.9749 15.8535 18.5607 16.4393L21.0607 18.9393C21.6464 19.5251 21.6464 20.4749 21.0607 21.0607C20.4749 21.6464 19.5251 21.6464 18.9393 21.0607L16.4393 18.5607C15.8536 17.9749 15.8536 17.0251 16.4393 16.4393Z" fill="#2E2E2E"/>
<path fill-rule="evenodd" clip-rule="evenodd" d="M12 6C8.68629 6 6 8.68629 6 12C6 15.3137 8.68629 18 12 18C15.3137 18 18 15.3137 18 12C18 8.68629 15.3137 6 12 6ZM3 12C3 7.02944 7.02944 3 12 3C16.9706 3 21 7.02944 21 12C21 16.9706 16.9706 21 12 21C7.02944 21 3 16.9706 3 12Z" fill="url(#paint0_linear_2001_6470)"/>
<defs>
<linearGradient id="paint0_linear_2001_6470" x1="21" y1="12" x2="2.9905" y2="12.0091" gradientUnits="userSpaceOnUse">
<stop stop-color="#00C4E9"/>
<stop offset="1" stop-color="#00EFB9"/>
</linearGradient>
</defs>
</svg>
