<svg width="24" height="24" viewBox="0 0 24 24" fill="none" xmlns="http://www.w3.org/2000/svg">
<foreignObject x="-3.00031" y="-4.00045" width="29.8325" height="31.7616"><div xmlns="http://www.w3.org/1999/xhtml" style="backdrop-filter:blur(3px);clip-path:url(#bgblur_0_2001_13855_clip_path);height:100%;width:100%"></div></foreignObject><g data-figma-bg-blur-radius="6">
<path d="M6.28159 7.90961C8.10031 2.98233 13.8046 1.60967 16.7972 2.0893C16.7972 2.0893 15.8709 5.11614 16.6976 6.42231C17.9541 5.95938 17.9382 6.0074 20.1039 6.32172C18.0537 10.2236 21.5799 11.0923 20.683 15.6469C20.0833 18.6916 18.1314 20.7371 15.9457 21.7602C14.8086 21.7773 13.4157 20.4232 12.9789 19.392C12.5384 18.352 12.4182 16.2765 12.9457 15.2914C12.7055 15.364 11.1594 15.6213 9.8646 17.1215C8.73479 18.4307 8.41126 20.7288 8.87241 21.7612C7.07026 21.0103 5.4591 19.7217 4.34409 17.9623C2.38654 14.8736 2.72452 10.621 4.34409 6.71918C4.34409 6.71918 4.67016 7.00837 5.24058 7.39692C5.80317 7.78011 6.26899 7.90625 6.28159 7.90961Z" fill="url(#paint0_linear_2001_13855)"/>
<path d="M20.6497 15.9453C20.2876 17.8448 19.2269 19.1803 18.1035 20.3267C18.6256 19.7432 20.2578 17.3846 20.0214 13.9943C19.7851 10.604 17.4587 7.95947 16.6816 6.40532C17.7398 5.85968 19.5499 5.6323 20.7675 5.97263C18.741 9.95774 21.5366 11.2933 20.6497 15.9453Z" fill="url(#paint1_linear_2001_13855)"/>
</g>
<defs>
<clipPath id="bgblur_0_2001_13855_clip_path" transform="translate(3.00031 4.00045)"><path d="M6.28159 7.90961C8.10031 2.98233 13.8046 1.60967 16.7972 2.0893C16.7972 2.0893 15.8709 5.11614 16.6976 6.42231C17.9541 5.95938 17.9382 6.0074 20.1039 6.32172C18.0537 10.2236 21.5799 11.0923 20.683 15.6469C20.0833 18.6916 18.1314 20.7371 15.9457 21.7602C14.8086 21.7773 13.4157 20.4232 12.9789 19.392C12.5384 18.352 12.4182 16.2765 12.9457 15.2914C12.7055 15.364 11.1594 15.6213 9.8646 17.1215C8.73479 18.4307 8.41126 20.7288 8.87241 21.7612C7.07026 21.0103 5.4591 19.7217 4.34409 17.9623C2.38654 14.8736 2.72452 10.621 4.34409 6.71918C4.34409 6.71918 4.67016 7.00837 5.24058 7.39692C5.80317 7.78011 6.26899 7.90625 6.28159 7.90961Z"/>
<path d="M20.6497 15.9453C20.2876 17.8448 19.2269 19.1803 18.1035 20.3267C18.6256 19.7432 20.2578 17.3846 20.0214 13.9943C19.7851 10.604 17.4587 7.95947 16.6816 6.40532C17.7398 5.85968 19.5499 5.6323 20.7675 5.97263C18.741 9.95774 21.5366 11.2933 20.6497 15.9453Z"/>
</clipPath><linearGradient id="paint0_linear_2001_13855" x1="13.1754" y1="20.9358" x2="13.7072" y2="0.265829" gradientUnits="userSpaceOnUse">
<stop stop-color="#FF6E11"/>
<stop offset="1" stop-color="#FF5E5E"/>
</linearGradient>
<linearGradient id="paint1_linear_2001_13855" x1="18.0237" y1="20.3435" x2="21.1819" y2="6.02474" gradientUnits="userSpaceOnUse">
<stop stop-color="#FFC555"/>
<stop offset="1" stop-color="#FF9921"/>
</linearGradient>
</defs>
</svg>
