<svg width="512" height="512" viewBox="0 0 512 512" fill="none" xmlns="http://www.w3.org/2000/svg">
<rect width="512" height="512" fill="#00C4D0"/>
<path fill-rule="evenodd" clip-rule="evenodd" d="M390.505 376.905C396.662 376.905 402.756 377.171 408.777 377.695C409.867 377.789 410.848 377.026 411.012 375.944L415.06 349.23C415.546 346.023 412.979 343.167 409.742 343.385C352.396 347.237 299.851 368.609 257.413 402.195C256.657 402.793 255.588 402.793 254.832 402.195C212.394 368.609 159.849 347.237 102.503 343.385C99.2662 343.167 96.6988 346.023 97.1849 349.23L101.233 375.944C101.397 377.026 102.378 377.789 103.468 377.695C109.489 377.171 115.583 376.905 121.74 376.905C166.595 376.905 208.138 391.091 242.125 415.22C246.474 418.306 250.697 421.556 254.788 424.96C255.561 425.604 256.685 425.604 257.458 424.96C261.549 421.556 265.771 418.306 270.119 415.22C304.106 391.09 345.65 376.905 390.505 376.905Z" fill="white"/>
<path d="M220.336 80.2149C220.828 80.2111 221.312 80.3388 221.738 80.585L235.996 88.8207C255.515 100.156 273.888 117.757 285.35 138.934C295.518 157.72 303.045 179.445 306.233 191.121C306.678 192.751 308.79 193.248 309.875 191.953C315.966 184.684 319.698 179.433 324.221 170.569C324.382 170.145 324.643 169.766 324.982 169.465C325.322 169.164 325.729 168.95 326.169 168.841C326.609 168.731 327.069 168.73 327.509 168.837C327.95 168.944 328.358 169.157 328.699 169.456L338.744 178.514C350.878 189.426 360.617 202.736 367.347 217.604C374.203 232.784 377.657 248.851 377.657 265.423C377.689 281.3 374.438 297.013 368.106 311.572C365.244 318.167 361.789 324.469 357.793 330.403C355.295 334.114 351.441 336.634 347.165 337.951C332.718 342.402 318.778 348.008 305.451 354.66C304.464 355.152 303.445 353.928 304.092 353.034C322.698 327.297 326.338 304.706 318.063 279.443C317.807 278.66 316.782 278.479 316.274 279.128C312.646 283.764 301.123 298.026 289.406 307.634C283.634 287.81 274.527 276.656 267.799 269.643C267.086 268.901 265.853 269.612 266.04 270.624C275.835 323.489 234.08 331.363 238.015 370.75C238.104 371.639 237.113 372.284 236.369 371.789C214.664 357.35 190.797 345.903 165.358 338.036C161.099 336.719 157.26 334.208 154.764 330.515C150.718 324.531 147.218 318.174 144.317 311.522C137.979 296.898 134.766 281.388 134.766 265.372C134.786 247.196 139.062 229.276 147.252 213.049C155.52 196.861 167.355 182.76 181.864 171.809C187.873 167.267 193.351 162.005 198.246 156.16C205.157 147.911 210.639 138.564 214.464 128.506C217.564 120.333 218.879 110.491 218.361 99.3586L217.602 83.0648C217.585 82.573 217.701 82.0857 217.936 81.6537C218.171 81.2216 218.518 80.8601 218.94 80.6072C219.362 80.3543 219.844 80.2188 220.336 80.2149Z" fill="white"/>
<path d="M127.601 403.574C119.832 403.574 112.122 403.853 104.478 404.402C103.29 404.488 102.933 402.897 104.062 402.517C117.684 397.932 132.139 395.466 147.11 395.466C171.578 395.466 194.657 402.046 214.987 413.7C216.024 414.295 215.356 415.794 214.205 415.471C186.5 407.702 157.484 403.574 127.601 403.574Z" fill="white"/>
<path d="M384.506 403.574C392.238 403.574 399.912 403.853 407.52 404.402C408.708 404.488 409.066 402.898 407.938 402.517C394.378 397.932 379.989 395.466 365.086 395.466C340.731 395.466 317.759 402.045 297.522 413.699C296.486 414.295 297.156 415.793 298.307 415.468C325.883 407.701 354.763 403.574 384.506 403.574Z" fill="white"/>
</svg>
